<mxfile host="app.diagrams.net" modified="2024-04-13T06:31:11.096Z" agent="Mozilla/5.0 (Windows NT 10.0; Win64; x64) AppleWebKit/537.36 (KHTML, like Gecko) Chrome/123.0.0.0 Safari/537.36" etag="SzdP-CEgveP9z9hiovT6" version="24.2.5" type="github">
  <diagram name="滑动窗口" id="Ptbf9ah1VGdvXe0N-SUY">
    <mxGraphModel dx="989" dy="515" grid="1" gridSize="10" guides="1" tooltips="1" connect="1" arrows="1" fold="1" page="1" pageScale="1" pageWidth="827" pageHeight="1169" math="0" shadow="0">
      <root>
        <mxCell id="0" />
        <mxCell id="1" parent="0" />
        <mxCell id="HawALz7BiL6i6ys-8CbG-54" value="" style="rounded=0;whiteSpace=wrap;html=1;" vertex="1" parent="1">
          <mxGeometry x="40" y="320" width="520" height="240" as="geometry" />
        </mxCell>
        <mxCell id="HawALz7BiL6i6ys-8CbG-52" value="" style="rounded=0;whiteSpace=wrap;html=1;" vertex="1" parent="1">
          <mxGeometry x="40" y="40" width="520" height="240" as="geometry" />
        </mxCell>
        <mxCell id="HawALz7BiL6i6ys-8CbG-1" value="串 S" style="text;html=1;align=center;verticalAlign=middle;resizable=0;points=[];autosize=1;strokeColor=none;fillColor=none;" vertex="1" parent="1">
          <mxGeometry x="40" y="110" width="50" height="30" as="geometry" />
        </mxCell>
        <mxCell id="HawALz7BiL6i6ys-8CbG-2" value="串 T" style="text;html=1;align=center;verticalAlign=middle;resizable=0;points=[];autosize=1;strokeColor=none;fillColor=none;" vertex="1" parent="1">
          <mxGeometry x="40" y="230" width="50" height="30" as="geometry" />
        </mxCell>
        <mxCell id="HawALz7BiL6i6ys-8CbG-4" value="E" style="rounded=0;whiteSpace=wrap;html=1;fontStyle=1" vertex="1" parent="1">
          <mxGeometry x="120" y="110" width="40" height="40" as="geometry" />
        </mxCell>
        <mxCell id="HawALz7BiL6i6ys-8CbG-5" value="B" style="rounded=0;whiteSpace=wrap;html=1;fontStyle=1" vertex="1" parent="1">
          <mxGeometry x="160" y="110" width="40" height="40" as="geometry" />
        </mxCell>
        <mxCell id="HawALz7BiL6i6ys-8CbG-6" value="B" style="rounded=0;whiteSpace=wrap;html=1;fontStyle=1" vertex="1" parent="1">
          <mxGeometry x="200" y="110" width="40" height="40" as="geometry" />
        </mxCell>
        <mxCell id="HawALz7BiL6i6ys-8CbG-7" value="A" style="rounded=0;whiteSpace=wrap;html=1;fontStyle=1" vertex="1" parent="1">
          <mxGeometry x="240" y="110" width="40" height="40" as="geometry" />
        </mxCell>
        <mxCell id="HawALz7BiL6i6ys-8CbG-8" value="N" style="rounded=0;whiteSpace=wrap;html=1;fontStyle=1" vertex="1" parent="1">
          <mxGeometry x="280" y="110" width="40" height="40" as="geometry" />
        </mxCell>
        <mxCell id="HawALz7BiL6i6ys-8CbG-9" value="C" style="rounded=0;whiteSpace=wrap;html=1;fontStyle=1" vertex="1" parent="1">
          <mxGeometry x="320" y="110" width="40" height="40" as="geometry" />
        </mxCell>
        <mxCell id="HawALz7BiL6i6ys-8CbG-10" value="F" style="rounded=0;whiteSpace=wrap;html=1;fontStyle=1" vertex="1" parent="1">
          <mxGeometry x="360" y="110" width="40" height="40" as="geometry" />
        </mxCell>
        <mxCell id="HawALz7BiL6i6ys-8CbG-13" value="窗口区间：[0, 0)" style="text;html=1;align=center;verticalAlign=middle;resizable=0;points=[];autosize=1;strokeColor=none;fillColor=none;" vertex="1" parent="1">
          <mxGeometry x="120" y="70" width="110" height="30" as="geometry" />
        </mxCell>
        <mxCell id="HawALz7BiL6i6ys-8CbG-17" value="left = 0" style="text;html=1;align=center;verticalAlign=middle;resizable=0;points=[];autosize=1;strokeColor=none;fillColor=none;" vertex="1" parent="1">
          <mxGeometry x="110" y="160" width="60" height="30" as="geometry" />
        </mxCell>
        <mxCell id="HawALz7BiL6i6ys-8CbG-21" value="right = 0" style="text;html=1;align=center;verticalAlign=middle;resizable=0;points=[];autosize=1;strokeColor=none;fillColor=none;" vertex="1" parent="1">
          <mxGeometry x="105" y="190" width="70" height="30" as="geometry" />
        </mxCell>
        <mxCell id="HawALz7BiL6i6ys-8CbG-23" value="" style="rounded=0;whiteSpace=wrap;html=1;strokeWidth=2;strokeColor=#d6b656;fillColor=none;fontStyle=1" vertex="1" parent="1">
          <mxGeometry x="120" y="100" width="10" height="60" as="geometry" />
        </mxCell>
        <mxCell id="HawALz7BiL6i6ys-8CbG-25" value="A" style="rounded=0;whiteSpace=wrap;html=1;fontColor=#FF0000;fontStyle=1" vertex="1" parent="1">
          <mxGeometry x="120" y="230" width="40" height="40" as="geometry" />
        </mxCell>
        <mxCell id="HawALz7BiL6i6ys-8CbG-26" value="B" style="rounded=0;whiteSpace=wrap;html=1;fontColor=#FF0000;fontStyle=1" vertex="1" parent="1">
          <mxGeometry x="160" y="230" width="40" height="40" as="geometry" />
        </mxCell>
        <mxCell id="HawALz7BiL6i6ys-8CbG-27" value="C" style="rounded=0;whiteSpace=wrap;html=1;fontColor=#FF0000;fontStyle=1" vertex="1" parent="1">
          <mxGeometry x="200" y="230" width="40" height="40" as="geometry" />
        </mxCell>
        <mxCell id="HawALz7BiL6i6ys-8CbG-28" value="needs = { A: 1, B: 1, C: 1 }" style="text;html=1;align=center;verticalAlign=middle;resizable=0;points=[];autosize=1;strokeColor=none;fillColor=none;" vertex="1" parent="1">
          <mxGeometry x="320" y="220" width="160" height="30" as="geometry" />
        </mxCell>
        <mxCell id="HawALz7BiL6i6ys-8CbG-29" value="window = { A: 0, B: 0, C: 0 }" style="text;html=1;align=center;verticalAlign=middle;resizable=0;points=[];autosize=1;strokeColor=none;fillColor=none;" vertex="1" parent="1">
          <mxGeometry x="315" y="250" width="170" height="30" as="geometry" />
        </mxCell>
        <mxCell id="HawALz7BiL6i6ys-8CbG-30" value="计数器" style="text;html=1;align=center;verticalAlign=middle;resizable=0;points=[];autosize=1;strokeColor=none;fillColor=none;fontColor=#FF0000;" vertex="1" parent="1">
          <mxGeometry x="500" y="235" width="60" height="30" as="geometry" />
        </mxCell>
        <mxCell id="HawALz7BiL6i6ys-8CbG-31" value="初始状态：" style="text;html=1;align=center;verticalAlign=middle;resizable=0;points=[];autosize=1;strokeColor=none;fillColor=none;fontStyle=1" vertex="1" parent="1">
          <mxGeometry x="40" y="40" width="80" height="30" as="geometry" />
        </mxCell>
        <mxCell id="HawALz7BiL6i6ys-8CbG-32" value="串 S" style="text;html=1;align=center;verticalAlign=middle;resizable=0;points=[];autosize=1;strokeColor=none;fillColor=none;" vertex="1" parent="1">
          <mxGeometry x="40" y="390" width="50" height="30" as="geometry" />
        </mxCell>
        <mxCell id="HawALz7BiL6i6ys-8CbG-33" value="串 T" style="text;html=1;align=center;verticalAlign=middle;resizable=0;points=[];autosize=1;strokeColor=none;fillColor=none;" vertex="1" parent="1">
          <mxGeometry x="40" y="510" width="50" height="30" as="geometry" />
        </mxCell>
        <mxCell id="HawALz7BiL6i6ys-8CbG-34" value="E" style="rounded=0;whiteSpace=wrap;html=1;fontStyle=1" vertex="1" parent="1">
          <mxGeometry x="120" y="390" width="40" height="40" as="geometry" />
        </mxCell>
        <mxCell id="HawALz7BiL6i6ys-8CbG-35" value="B" style="rounded=0;whiteSpace=wrap;html=1;fontStyle=1;fontColor=#00FF00;" vertex="1" parent="1">
          <mxGeometry x="160" y="390" width="40" height="40" as="geometry" />
        </mxCell>
        <mxCell id="HawALz7BiL6i6ys-8CbG-36" value="B" style="rounded=0;whiteSpace=wrap;html=1;fontStyle=1;fontColor=#00FF00;" vertex="1" parent="1">
          <mxGeometry x="200" y="390" width="40" height="40" as="geometry" />
        </mxCell>
        <mxCell id="HawALz7BiL6i6ys-8CbG-37" value="A" style="rounded=0;whiteSpace=wrap;html=1;fontStyle=1;fontColor=#00FF00;" vertex="1" parent="1">
          <mxGeometry x="240" y="390" width="40" height="40" as="geometry" />
        </mxCell>
        <mxCell id="HawALz7BiL6i6ys-8CbG-38" value="N" style="rounded=0;whiteSpace=wrap;html=1;fontStyle=1" vertex="1" parent="1">
          <mxGeometry x="280" y="390" width="40" height="40" as="geometry" />
        </mxCell>
        <mxCell id="HawALz7BiL6i6ys-8CbG-39" value="C" style="rounded=0;whiteSpace=wrap;html=1;fontStyle=1;fontColor=#00FF00;" vertex="1" parent="1">
          <mxGeometry x="320" y="390" width="40" height="40" as="geometry" />
        </mxCell>
        <mxCell id="HawALz7BiL6i6ys-8CbG-40" value="F" style="rounded=0;whiteSpace=wrap;html=1;fontStyle=1" vertex="1" parent="1">
          <mxGeometry x="360" y="390" width="40" height="40" as="geometry" />
        </mxCell>
        <mxCell id="HawALz7BiL6i6ys-8CbG-41" value="窗口区间：[0, 6)" style="text;html=1;align=center;verticalAlign=middle;resizable=0;points=[];autosize=1;strokeColor=none;fillColor=none;fontStyle=1;fontColor=#0000FF;" vertex="1" parent="1">
          <mxGeometry x="120" y="350" width="110" height="30" as="geometry" />
        </mxCell>
        <mxCell id="HawALz7BiL6i6ys-8CbG-42" value="left = 0" style="text;html=1;align=center;verticalAlign=middle;resizable=0;points=[];autosize=1;strokeColor=none;fillColor=none;" vertex="1" parent="1">
          <mxGeometry x="110" y="450" width="60" height="30" as="geometry" />
        </mxCell>
        <mxCell id="HawALz7BiL6i6ys-8CbG-43" value="right = 6" style="text;html=1;align=center;verticalAlign=middle;resizable=0;points=[];autosize=1;strokeColor=none;fillColor=none;fontColor=#0000FF;fontStyle=1" vertex="1" parent="1">
          <mxGeometry x="344" y="450" width="70" height="30" as="geometry" />
        </mxCell>
        <mxCell id="HawALz7BiL6i6ys-8CbG-44" value="" style="rounded=0;whiteSpace=wrap;html=1;strokeWidth=2;strokeColor=#d6b656;fillColor=none;fontStyle=1" vertex="1" parent="1">
          <mxGeometry x="120" y="380" width="230" height="60" as="geometry" />
        </mxCell>
        <mxCell id="HawALz7BiL6i6ys-8CbG-45" value="A" style="rounded=0;whiteSpace=wrap;html=1;fontColor=#00FF00;fontStyle=1" vertex="1" parent="1">
          <mxGeometry x="120" y="510" width="40" height="40" as="geometry" />
        </mxCell>
        <mxCell id="HawALz7BiL6i6ys-8CbG-46" value="B" style="rounded=0;whiteSpace=wrap;html=1;fontColor=#00FF00;fontStyle=1" vertex="1" parent="1">
          <mxGeometry x="160" y="510" width="40" height="40" as="geometry" />
        </mxCell>
        <mxCell id="HawALz7BiL6i6ys-8CbG-47" value="C" style="rounded=0;whiteSpace=wrap;html=1;fontColor=#00FF00;fontStyle=1" vertex="1" parent="1">
          <mxGeometry x="200" y="510" width="40" height="40" as="geometry" />
        </mxCell>
        <mxCell id="HawALz7BiL6i6ys-8CbG-48" value="needs = { A: 1, B: 1, C: 1 }" style="text;html=1;align=center;verticalAlign=middle;resizable=0;points=[];autosize=1;strokeColor=none;fillColor=none;" vertex="1" parent="1">
          <mxGeometry x="320" y="500" width="160" height="30" as="geometry" />
        </mxCell>
        <mxCell id="HawALz7BiL6i6ys-8CbG-49" value="window = { A: 1, B: 2, C: 1 }" style="text;html=1;align=center;verticalAlign=middle;resizable=0;points=[];autosize=1;strokeColor=none;fillColor=none;fontStyle=1;fontColor=#0000FF;" vertex="1" parent="1">
          <mxGeometry x="315" y="530" width="170" height="30" as="geometry" />
        </mxCell>
        <mxCell id="HawALz7BiL6i6ys-8CbG-50" value="计数器" style="text;html=1;align=center;verticalAlign=middle;resizable=0;points=[];autosize=1;strokeColor=none;fillColor=none;fontColor=#FF0000;" vertex="1" parent="1">
          <mxGeometry x="500" y="510" width="60" height="30" as="geometry" />
        </mxCell>
        <mxCell id="HawALz7BiL6i6ys-8CbG-51" value="增加 &lt;span style=&quot;font-weight: normal;&quot;&gt;right&lt;/span&gt;，直到 &lt;span style=&quot;font-weight: normal;&quot;&gt;[left, right)&lt;/span&gt; 包含了 T 中所有字符：" style="text;html=1;align=center;verticalAlign=middle;resizable=0;points=[];autosize=1;strokeColor=none;fillColor=none;fontStyle=1" vertex="1" parent="1">
          <mxGeometry x="40" y="320" width="290" height="30" as="geometry" />
        </mxCell>
        <mxCell id="HawALz7BiL6i6ys-8CbG-53" value="窗口" style="text;html=1;align=center;verticalAlign=middle;resizable=0;points=[];autosize=1;strokeColor=none;fillColor=none;fontColor=#D79B00;fontStyle=1" vertex="1" parent="1">
          <mxGeometry x="210" y="440" width="50" height="30" as="geometry" />
        </mxCell>
        <mxCell id="HawALz7BiL6i6ys-8CbG-55" value="" style="rounded=0;whiteSpace=wrap;html=1;" vertex="1" parent="1">
          <mxGeometry x="40" y="600" width="520" height="240" as="geometry" />
        </mxCell>
        <mxCell id="HawALz7BiL6i6ys-8CbG-56" value="串 S" style="text;html=1;align=center;verticalAlign=middle;resizable=0;points=[];autosize=1;strokeColor=none;fillColor=none;" vertex="1" parent="1">
          <mxGeometry x="40" y="670" width="50" height="30" as="geometry" />
        </mxCell>
        <mxCell id="HawALz7BiL6i6ys-8CbG-57" value="串 T" style="text;html=1;align=center;verticalAlign=middle;resizable=0;points=[];autosize=1;strokeColor=none;fillColor=none;" vertex="1" parent="1">
          <mxGeometry x="40" y="790" width="50" height="30" as="geometry" />
        </mxCell>
        <mxCell id="HawALz7BiL6i6ys-8CbG-58" value="E" style="rounded=0;whiteSpace=wrap;html=1;fontStyle=1" vertex="1" parent="1">
          <mxGeometry x="120" y="670" width="40" height="40" as="geometry" />
        </mxCell>
        <mxCell id="HawALz7BiL6i6ys-8CbG-59" value="B" style="rounded=0;whiteSpace=wrap;html=1;fontStyle=1;fontColor=#000000;" vertex="1" parent="1">
          <mxGeometry x="160" y="670" width="40" height="40" as="geometry" />
        </mxCell>
        <mxCell id="HawALz7BiL6i6ys-8CbG-60" value="B" style="rounded=0;whiteSpace=wrap;html=1;fontStyle=1;fontColor=#00FF00;" vertex="1" parent="1">
          <mxGeometry x="200" y="670" width="40" height="40" as="geometry" />
        </mxCell>
        <mxCell id="HawALz7BiL6i6ys-8CbG-61" value="A" style="rounded=0;whiteSpace=wrap;html=1;fontStyle=1;fontColor=#00FF00;" vertex="1" parent="1">
          <mxGeometry x="240" y="670" width="40" height="40" as="geometry" />
        </mxCell>
        <mxCell id="HawALz7BiL6i6ys-8CbG-62" value="N" style="rounded=0;whiteSpace=wrap;html=1;fontStyle=1" vertex="1" parent="1">
          <mxGeometry x="280" y="670" width="40" height="40" as="geometry" />
        </mxCell>
        <mxCell id="HawALz7BiL6i6ys-8CbG-63" value="C" style="rounded=0;whiteSpace=wrap;html=1;fontStyle=1;fontColor=#00FF00;" vertex="1" parent="1">
          <mxGeometry x="320" y="670" width="40" height="40" as="geometry" />
        </mxCell>
        <mxCell id="HawALz7BiL6i6ys-8CbG-64" value="F" style="rounded=0;whiteSpace=wrap;html=1;fontStyle=1" vertex="1" parent="1">
          <mxGeometry x="360" y="670" width="40" height="40" as="geometry" />
        </mxCell>
        <mxCell id="HawALz7BiL6i6ys-8CbG-65" value="窗口区间：[2, 6)" style="text;html=1;align=center;verticalAlign=middle;resizable=0;points=[];autosize=1;strokeColor=none;fillColor=none;fontStyle=1;fontColor=#0000FF;" vertex="1" parent="1">
          <mxGeometry x="200" y="630" width="110" height="30" as="geometry" />
        </mxCell>
        <mxCell id="HawALz7BiL6i6ys-8CbG-66" value="left = 2" style="text;html=1;align=center;verticalAlign=middle;resizable=0;points=[];autosize=1;strokeColor=none;fillColor=none;fontStyle=1;fontColor=#0000FF;" vertex="1" parent="1">
          <mxGeometry x="190" y="730" width="60" height="30" as="geometry" />
        </mxCell>
        <mxCell id="HawALz7BiL6i6ys-8CbG-67" value="right = 6" style="text;html=1;align=center;verticalAlign=middle;resizable=0;points=[];autosize=1;strokeColor=none;fillColor=none;" vertex="1" parent="1">
          <mxGeometry x="344" y="730" width="70" height="30" as="geometry" />
        </mxCell>
        <mxCell id="HawALz7BiL6i6ys-8CbG-68" value="" style="rounded=0;whiteSpace=wrap;html=1;strokeWidth=2;strokeColor=#d6b656;fillColor=none;fontStyle=1" vertex="1" parent="1">
          <mxGeometry x="210" y="660" width="140" height="60" as="geometry" />
        </mxCell>
        <mxCell id="HawALz7BiL6i6ys-8CbG-69" value="A" style="rounded=0;whiteSpace=wrap;html=1;fontColor=#00FF00;fontStyle=1" vertex="1" parent="1">
          <mxGeometry x="120" y="790" width="40" height="40" as="geometry" />
        </mxCell>
        <mxCell id="HawALz7BiL6i6ys-8CbG-70" value="B" style="rounded=0;whiteSpace=wrap;html=1;fontColor=#00FF00;fontStyle=1" vertex="1" parent="1">
          <mxGeometry x="160" y="790" width="40" height="40" as="geometry" />
        </mxCell>
        <mxCell id="HawALz7BiL6i6ys-8CbG-71" value="C" style="rounded=0;whiteSpace=wrap;html=1;fontColor=#00FF00;fontStyle=1" vertex="1" parent="1">
          <mxGeometry x="200" y="790" width="40" height="40" as="geometry" />
        </mxCell>
        <mxCell id="HawALz7BiL6i6ys-8CbG-72" value="needs = { A: 1, B: 1, C: 1 }" style="text;html=1;align=center;verticalAlign=middle;resizable=0;points=[];autosize=1;strokeColor=none;fillColor=none;" vertex="1" parent="1">
          <mxGeometry x="320" y="780" width="160" height="30" as="geometry" />
        </mxCell>
        <mxCell id="HawALz7BiL6i6ys-8CbG-73" value="window = { A: 1, B: &lt;font color=&quot;#0000ff&quot;&gt;1&lt;/font&gt;, C: 1 }" style="text;html=1;align=center;verticalAlign=middle;resizable=0;points=[];autosize=1;strokeColor=none;fillColor=none;fontStyle=1;fontColor=#000000;" vertex="1" parent="1">
          <mxGeometry x="315" y="810" width="170" height="30" as="geometry" />
        </mxCell>
        <mxCell id="HawALz7BiL6i6ys-8CbG-74" value="计数器" style="text;html=1;align=center;verticalAlign=middle;resizable=0;points=[];autosize=1;strokeColor=none;fillColor=none;fontColor=#FF0000;" vertex="1" parent="1">
          <mxGeometry x="500" y="790" width="60" height="30" as="geometry" />
        </mxCell>
        <mxCell id="HawALz7BiL6i6ys-8CbG-75" value="现在开始 增加 &lt;span style=&quot;font-weight: 400;&quot;&gt;left&lt;/span&gt;，缩小窗口&amp;nbsp;&lt;span style=&quot;font-weight: normal;&quot;&gt;[left, right)&lt;/span&gt;&amp;nbsp;：" style="text;html=1;align=center;verticalAlign=middle;resizable=0;points=[];autosize=1;strokeColor=none;fillColor=none;fontStyle=1" vertex="1" parent="1">
          <mxGeometry x="40" y="600" width="250" height="30" as="geometry" />
        </mxCell>
        <mxCell id="HawALz7BiL6i6ys-8CbG-76" value="窗口" style="text;html=1;align=center;verticalAlign=middle;resizable=0;points=[];autosize=1;strokeColor=none;fillColor=none;fontColor=#D79B00;fontStyle=1" vertex="1" parent="1">
          <mxGeometry x="255" y="720" width="50" height="30" as="geometry" />
        </mxCell>
        <mxCell id="HawALz7BiL6i6ys-8CbG-77" value="" style="rounded=0;whiteSpace=wrap;html=1;" vertex="1" parent="1">
          <mxGeometry x="40" y="880" width="520" height="240" as="geometry" />
        </mxCell>
        <mxCell id="HawALz7BiL6i6ys-8CbG-78" value="串 S" style="text;html=1;align=center;verticalAlign=middle;resizable=0;points=[];autosize=1;strokeColor=none;fillColor=none;" vertex="1" parent="1">
          <mxGeometry x="40" y="950" width="50" height="30" as="geometry" />
        </mxCell>
        <mxCell id="HawALz7BiL6i6ys-8CbG-79" value="串 T" style="text;html=1;align=center;verticalAlign=middle;resizable=0;points=[];autosize=1;strokeColor=none;fillColor=none;" vertex="1" parent="1">
          <mxGeometry x="40" y="1070" width="50" height="30" as="geometry" />
        </mxCell>
        <mxCell id="HawALz7BiL6i6ys-8CbG-80" value="E" style="rounded=0;whiteSpace=wrap;html=1;fontStyle=1" vertex="1" parent="1">
          <mxGeometry x="120" y="950" width="40" height="40" as="geometry" />
        </mxCell>
        <mxCell id="HawALz7BiL6i6ys-8CbG-81" value="B" style="rounded=0;whiteSpace=wrap;html=1;fontStyle=1;fontColor=#000000;" vertex="1" parent="1">
          <mxGeometry x="160" y="950" width="40" height="40" as="geometry" />
        </mxCell>
        <mxCell id="HawALz7BiL6i6ys-8CbG-82" value="B" style="rounded=0;whiteSpace=wrap;html=1;fontStyle=1;fontColor=#000000;" vertex="1" parent="1">
          <mxGeometry x="200" y="950" width="40" height="40" as="geometry" />
        </mxCell>
        <mxCell id="HawALz7BiL6i6ys-8CbG-83" value="A" style="rounded=0;whiteSpace=wrap;html=1;fontStyle=1;fontColor=#00FF00;" vertex="1" parent="1">
          <mxGeometry x="240" y="950" width="40" height="40" as="geometry" />
        </mxCell>
        <mxCell id="HawALz7BiL6i6ys-8CbG-84" value="N" style="rounded=0;whiteSpace=wrap;html=1;fontStyle=1" vertex="1" parent="1">
          <mxGeometry x="280" y="950" width="40" height="40" as="geometry" />
        </mxCell>
        <mxCell id="HawALz7BiL6i6ys-8CbG-85" value="C" style="rounded=0;whiteSpace=wrap;html=1;fontStyle=1;fontColor=#00FF00;" vertex="1" parent="1">
          <mxGeometry x="320" y="950" width="40" height="40" as="geometry" />
        </mxCell>
        <mxCell id="HawALz7BiL6i6ys-8CbG-86" value="F" style="rounded=0;whiteSpace=wrap;html=1;fontStyle=1" vertex="1" parent="1">
          <mxGeometry x="360" y="950" width="40" height="40" as="geometry" />
        </mxCell>
        <mxCell id="HawALz7BiL6i6ys-8CbG-87" value="&lt;font color=&quot;#000000&quot;&gt;窗口区间：&lt;/font&gt;[3, 6)" style="text;html=1;align=center;verticalAlign=middle;resizable=0;points=[];autosize=1;strokeColor=none;fillColor=none;fontStyle=1;fontColor=#0000FF;" vertex="1" parent="1">
          <mxGeometry x="200" y="910" width="110" height="30" as="geometry" />
        </mxCell>
        <mxCell id="HawALz7BiL6i6ys-8CbG-88" value="left = 3" style="text;html=1;align=center;verticalAlign=middle;resizable=0;points=[];autosize=1;strokeColor=none;fillColor=none;fontStyle=1;fontColor=#0000FF;" vertex="1" parent="1">
          <mxGeometry x="230" y="1010" width="60" height="30" as="geometry" />
        </mxCell>
        <mxCell id="HawALz7BiL6i6ys-8CbG-89" value="right = 6" style="text;html=1;align=center;verticalAlign=middle;resizable=0;points=[];autosize=1;strokeColor=none;fillColor=none;" vertex="1" parent="1">
          <mxGeometry x="344" y="1010" width="70" height="30" as="geometry" />
        </mxCell>
        <mxCell id="HawALz7BiL6i6ys-8CbG-90" value="" style="rounded=0;whiteSpace=wrap;html=1;strokeWidth=2;strokeColor=#d6b656;fillColor=none;fontStyle=1" vertex="1" parent="1">
          <mxGeometry x="250" y="940" width="100" height="60" as="geometry" />
        </mxCell>
        <mxCell id="HawALz7BiL6i6ys-8CbG-91" value="A" style="rounded=0;whiteSpace=wrap;html=1;fontColor=#00FF00;fontStyle=1" vertex="1" parent="1">
          <mxGeometry x="120" y="1070" width="40" height="40" as="geometry" />
        </mxCell>
        <mxCell id="HawALz7BiL6i6ys-8CbG-92" value="B" style="rounded=0;whiteSpace=wrap;html=1;fontColor=#FF0000;fontStyle=1" vertex="1" parent="1">
          <mxGeometry x="160" y="1070" width="40" height="40" as="geometry" />
        </mxCell>
        <mxCell id="HawALz7BiL6i6ys-8CbG-93" value="C" style="rounded=0;whiteSpace=wrap;html=1;fontColor=#00FF00;fontStyle=1" vertex="1" parent="1">
          <mxGeometry x="200" y="1070" width="40" height="40" as="geometry" />
        </mxCell>
        <mxCell id="HawALz7BiL6i6ys-8CbG-94" value="needs = { A: 1, B: 1, C: 1 }" style="text;html=1;align=center;verticalAlign=middle;resizable=0;points=[];autosize=1;strokeColor=none;fillColor=none;" vertex="1" parent="1">
          <mxGeometry x="320" y="1060" width="160" height="30" as="geometry" />
        </mxCell>
        <mxCell id="HawALz7BiL6i6ys-8CbG-95" value="window = { A: 1, B: &lt;font color=&quot;#ff0000&quot;&gt;0&lt;/font&gt;, C: 1 }" style="text;html=1;align=center;verticalAlign=middle;resizable=0;points=[];autosize=1;strokeColor=none;fillColor=none;fontStyle=1;fontColor=#000000;" vertex="1" parent="1">
          <mxGeometry x="315" y="1090" width="170" height="30" as="geometry" />
        </mxCell>
        <mxCell id="HawALz7BiL6i6ys-8CbG-96" value="计数器" style="text;html=1;align=center;verticalAlign=middle;resizable=0;points=[];autosize=1;strokeColor=none;fillColor=none;fontColor=#FF0000;" vertex="1" parent="1">
          <mxGeometry x="500" y="1070" width="60" height="30" as="geometry" />
        </mxCell>
        <mxCell id="HawALz7BiL6i6ys-8CbG-97" value="直到窗口中的字符串不再符合要求，&amp;nbsp;&lt;span style=&quot;font-weight: 400;&quot;&gt;left&amp;nbsp;&lt;/span&gt;不再继续移动：" style="text;html=1;align=center;verticalAlign=middle;resizable=0;points=[];autosize=1;strokeColor=none;fillColor=none;fontStyle=1" vertex="1" parent="1">
          <mxGeometry x="40" y="880" width="320" height="30" as="geometry" />
        </mxCell>
        <mxCell id="HawALz7BiL6i6ys-8CbG-98" value="窗口" style="text;html=1;align=center;verticalAlign=middle;resizable=0;points=[];autosize=1;strokeColor=none;fillColor=none;fontColor=#D79B00;fontStyle=1" vertex="1" parent="1">
          <mxGeometry x="275" y="1000" width="50" height="30" as="geometry" />
        </mxCell>
        <mxCell id="HawALz7BiL6i6ys-8CbG-99" value="&lt;font style=&quot;font-size: 18px;&quot;&gt;①&lt;/font&gt;" style="text;html=1;align=center;verticalAlign=middle;resizable=0;points=[];autosize=1;strokeColor=none;fillColor=none;fontStyle=1" vertex="1" parent="1">
          <mxGeometry x="520" y="40" width="40" height="40" as="geometry" />
        </mxCell>
        <mxCell id="HawALz7BiL6i6ys-8CbG-100" value="&lt;font style=&quot;font-size: 18px;&quot;&gt;②&lt;/font&gt;" style="text;html=1;align=center;verticalAlign=middle;resizable=0;points=[];autosize=1;strokeColor=none;fillColor=none;fontStyle=1" vertex="1" parent="1">
          <mxGeometry x="520" y="320" width="40" height="40" as="geometry" />
        </mxCell>
        <mxCell id="HawALz7BiL6i6ys-8CbG-101" value="&lt;font style=&quot;font-size: 18px;&quot;&gt;③&lt;/font&gt;" style="text;html=1;align=center;verticalAlign=middle;resizable=0;points=[];autosize=1;strokeColor=none;fillColor=none;fontStyle=1" vertex="1" parent="1">
          <mxGeometry x="520" y="600" width="40" height="40" as="geometry" />
        </mxCell>
        <mxCell id="HawALz7BiL6i6ys-8CbG-102" value="&lt;font style=&quot;font-size: 18px;&quot;&gt;④&lt;/font&gt;" style="text;html=1;align=center;verticalAlign=middle;resizable=0;points=[];autosize=1;strokeColor=none;fillColor=none;fontStyle=1" vertex="1" parent="1">
          <mxGeometry x="520" y="880" width="40" height="40" as="geometry" />
        </mxCell>
      </root>
    </mxGraphModel>
  </diagram>
</mxfile>
